# xmcd
#
# Track frame offsets:
#	150
#	14333
#	29229
#	44075
#	57849
#	72404
#	87082
#	101252
#	115387
#	128226
#	142598
#	154702
#	168846
#	182762
#	196541
#	209412
#
# Disc length: 3118 seconds
#
# Revision: 0
# Processed by: cddbd v1.5PL3 Copyright (c) Steve Scherf et al.
# Submitted via: dBpowerAMP V4.0
#
DISCID=d80c2c10
DTITLE=Rev Gary Davis - I Am The True Vine
DYEAR=1900
DGENRE=Blues
TTITLE0=Twelve Gates to the City
TTITLE1=The Great Change in Me
TTITLE2=You Got To Go Down
TTITLE3=Cross and Evil Woman Blues
TTITLE4=I Belong to the Band - Hallelujah
TTITLE5=I Am The True Vine
TTITLE6=You Can Go Home
TTITLE7=The Angel's Message to Me
TTITLE8=I'm Throwing Up My Hands
TTITLE9=I Am the Light of the World
TTITLE10=I'm Gonna Meet You At the Station
TTITLE11=Lord Stand By Me
TTITLE12=O Lord Search My Heart
TTITLE13=Have More Faith In Jesus
TTITLE14=I Cannot Bear My Burden Myself
TTITLE15=Civil War March
EXTD=
EXTT0=
EXTT1=
EXTT2=
EXTT3=
EXTT4=
EXTT5=
EXTT6=
EXTT7=
EXTT8=
EXTT9=
EXTT10=
EXTT11=
EXTT12=
EXTT13=
EXTT14=
EXTT15=
PLAYORDER=
